<svg xmlns="http://www.w3.org/2000/svg" width="111" height="94" viewBox="0 0 111 94"><defs><style>.a{fill:#f1f1f1;}.b,.i{fill:#fff;}.c{fill:#2f2e41;}.d{fill:#9f616a;}.e{fill:#a0616a;}.f{fill:none;stroke:#3f3d56;stroke-miterlimit:10;stroke-width:2px;}.g{fill:#3f3d56;}.h{fill:#ff6584;}.i{opacity:0.3;}</style></defs><g transform="translate(0 0.017)"><circle class="a" cx="1.764" cy="1.764" r="1.764" transform="translate(87.674 4.148)"/><circle class="a" cx="1.764" cy="1.764" r="1.764" transform="translate(77.274 72.406)"/><circle class="a" cx="1.764" cy="1.764" r="1.764" transform="translate(33.401 21.123)"/><ellipse class="a" cx="18.5" cy="3" rx="18.5" ry="3" transform="translate(0 87.983)"/><path class="b" d="M361.974,602.727l4.712-1.476a17.269,17.269,0,0,0-1.76-5.618l-4.712,1.476A10.593,10.593,0,0,1,361.974,602.727Z" transform="translate(-333.291 -531.127)"/><circle class="c" cx="4.399" cy="4.399" r="4.399" transform="translate(12.958 27.438)"/><path class="d" d="M99.337,723.978l-.837,3.586h2.032l.837-4.065Z" transform="translate(-86.725 -637.014)"/><path class="d" d="M187.5,727.5v3.347l2.032.239V727.5Z" transform="translate(-165.086 -640.536)"/><path class="d" d="M235.5,464.622a48.946,48.946,0,0,0,.478,5.5c.239.359,2.391,5.5,2.391,5.5l1.076-3.347s-1.674-2.749-1.435-4.3a17.863,17.863,0,0,0,.088-3.466Z" transform="translate(-223.486 -415.673)"/><circle class="d" cx="3.347" cy="3.347" r="3.347" transform="translate(15.481 29.823)"/><path class="d" d="M263.591,336.5s.12,4.782-.717,5.5,4.782.12,4.782.12-1.2-3.347-.239-4.064S263.591,336.5,263.591,336.5Z" transform="translate(-247.513 -302.971)"/><path class="c" d="M242.209,372.639s-.717-1.315-1.674-1.2-4.064.359-4.184.6a7.141,7.141,0,0,1-.717,1.315c-.239.239-2.032.6-2.152,2.032s4.3,10.161,4.3,10.161a10.381,10.381,0,0,0-.478,2.51c.12.478-.6,1.913-.478,2.51s-1.793,4.184-.837,8.846v7.531s-3.228,13.03-2.271,13.987,4.184.359,4.782,0,3.108-18.41,3.108-18.41l1.2-6.1.12,13.389s-.239,11.237.6,11.6,4.064.478,4.3-.239c.186-.559,1.1-15.444,1.493-21.968a24.375,24.375,0,0,0-.526-6.715c-.5-2.257-1.22-4.908-2.043-5.984-1.554-2.032-2.51-8.488-2.51-8.488l2.032-3.706s-1.2-1.2-1.913-1.2A9.851,9.851,0,0,1,242.209,372.639Z" transform="translate(-221.708 -333.731)"/><path class="c" d="M233.189,397.5l-.63.429s-.445,7.7-.087,8.178,2.852.245,3.04-.176S233.189,397.5,233.189,397.5Z" transform="translate(-220.697 -356.679)"/><path class="d" d="M321.5,450.071s.12,5.021.837,6.455,3.347,7.412,3.347,7.412-.153,6.579,1.179,4.963.495-5.441.495-5.441l-2.271-8.846s-1.2-3.945-1.076-5.14S321.5,450.071,321.5,450.071Z" transform="translate(-299.205 -402.078)"/><path class="c" d="M317.978,795.214s.12-.1.478.263a2.387,2.387,0,0,1,1.2,2.152c-.12,1.315-.837,1.554-.837,1.554v-.359h-.359v.6s-.6,1.913-3.347.717a6.2,6.2,0,0,1,0-1.554c.12-.6.12-3.467.478-3.347s1.315.239,1.554.717S318.1,796.266,317.978,795.214Z" transform="translate(-293.531 -706.839)"/><path class="c" d="M224.1,796.214s-.12-.1-.478.263a2.388,2.388,0,0,0-1.2,2.152c.12,1.315.837,1.554.837,1.554v-.359h.359v.6s.6,1.913,3.347.717a6.2,6.2,0,0,0,0-1.554c-.12-.6-.12-3.467-.478-3.347s-1.315.239-1.554.717S223.978,797.266,224.1,796.214Z" transform="translate(-211.964 -707.72)"/><path class="c" d="M318.114,392.5l1.674.359a13.189,13.189,0,0,0,.478,3.706c.478,1.076,1.315,3.586.956,3.706s-3.706,1.793-3.945.837S316.441,392.5,318.114,392.5Z" transform="translate(-295.222 -352.277)"/><circle class="c" cx="4.399" cy="4.399" r="4.399" transform="translate(8.193 21.646)"/><path class="c" d="M194.074,274.072a4.4,4.4,0,0,0,6.793-2.31,4.4,4.4,0,1,1-8.582-1.8A4.4,4.4,0,0,0,194.074,274.072Z" transform="translate(-185.277 -244.384)"/><circle class="c" cx="3.226" cy="3.226" r="3.226" transform="translate(12.958 29.345)"/><ellipse class="c" cx="2.859" cy="2.236" rx="2.859" ry="2.236" transform="translate(16.038 29.125)"/><ellipse class="e" cx="0.543" cy="0.96" rx="0.543" ry="0.96" transform="translate(19.117 32.692)"/><rect class="a" width="63.836" height="51.284" transform="matrix(0.958, 0.288, -0.288, 0.958, 48.559, 2.587)"/><line class="f" x2="14.481" y2="5.853" transform="translate(73.06 16.959)"/><path class="g" d="M609.762,138.608l.217-.1-.5-1.068,1.1-.421-.086-.223-1.341.512Z" transform="translate(-536.333 -120.445)"/><path class="g" d="M722.466,182.606l-.086-.223,1.1-.42-.5-1.068.217-.1.609,1.3Z" transform="translate(-636.025 -159.184)"/><circle class="g" cx="1.315" cy="1.315" r="1.315" transform="translate(78.986 18.571)"/><line class="f" y1="8.123" x2="13.341" transform="translate(71.957 49.416)"/><path class="g" d="M601.489,472.589l.048-.234-1.155-.236.32-1.135-.23-.065-.39,1.382Z" transform="translate(-528.347 -414.627)"/><path class="g" d="M704.285,411.532l-.23-.065.32-1.134-1.155-.237.048-.234,1.407.288Z" transform="translate(-619.155 -360.869)"/><circle class="g" cx="1.315" cy="1.315" r="1.315" transform="translate(77.312 52.162)"/><line class="f" x2="0.005" y2="15.62" transform="translate(55.195 31.801)"/><path class="g" d="M453.538,264.927l.175.163.8-.864.8.863.175-.163-.978-1.051Z" transform="translate(-399.321 -232.334)"/><path class="g" d="M453.573,388.877l.175-.163.8.863.8-.864.175.163-.978,1.052Z" transform="translate(-399.352 -342.248)"/><circle class="g" cx="1.315" cy="1.315" r="1.315" transform="translate(53.882 38.295)"/><rect class="g" width="21" height="27" transform="translate(45 -0.017)"/><path class="h" d="M545.393,96.774h-4.938a17.271,17.271,0,0,1,0-5.887h4.938A10.592,10.592,0,0,0,545.393,96.774Z" transform="translate(-491.764 -86.72)"/><path class="b" d="M606.379,121.752h4.938a17.268,17.268,0,0,0,0-5.887h-4.938A10.593,10.593,0,0,1,606.379,121.752Z" transform="translate(-550.029 -108.712)"/><path class="b" d="M567.379,203.752h4.938a17.268,17.268,0,0,0,0-5.887h-4.938A10.592,10.592,0,0,1,567.379,203.752Z" transform="translate(-515.691 -180.909)"/><rect class="g" width="22" height="27" transform="translate(89 25.983)"/><rect class="b" width="16" transform="translate(92 31.983)"/><rect class="b" width="16" height="1" transform="translate(92 33.983)"/><rect class="b" width="16" transform="translate(92 36.983)"/><rect class="b" width="16" height="1" transform="translate(92 38.983)"/><rect class="b" width="16" height="1" transform="translate(92 40.983)"/><rect class="b" width="7" height="2" transform="translate(97 44.983)"/><rect class="g" width="22" height="26" transform="translate(46 53.983)"/><rect class="b" width="15.541" height="0.717" transform="translate(49.168 68.472)"/><rect class="b" width="15.541" height="0.717" transform="translate(49.168 70.982)"/><rect class="b" width="15.541" height="0.717" transform="translate(49.168 73.492)"/><rect class="b" width="15.541" height="0.717" transform="translate(49.168 76.003)"/><path class="i" d="M547.893,540.081h-4.938a17.268,17.268,0,0,1,0-5.887h4.938A10.592,10.592,0,0,0,547.893,540.081Z" transform="translate(-493.965 -477.033)"/><rect class="i" width="9.085" height="0.598" transform="translate(55.982 57.713)"/><rect class="i" width="9.085" height="0.598" transform="translate(55.982 59.865)"/><rect class="i" width="9.085" height="0.598" transform="translate(55.982 62.016)"/><rect class="i" width="9.085" height="0.598" transform="translate(55.982 64.168)"/></g></svg>