<svg xmlns="http://www.w3.org/2000/svg" xmlns:xlink="http://www.w3.org/1999/xlink" width="104" height="98.106" viewBox="0 0 104 98.106"><defs><style>.a,.c{fill:#fff;}.a,.g,.m{opacity:0.1;}.b,.w{fill:none;}.b{stroke:#535461;stroke-miterlimit:10;stroke-width:2px;}.d{opacity:0.25;}.e{fill:url(#a);}.f{fill:#65617d;}.h{fill:#fbbebe;}.i{fill:#e7effd;}.j{fill:#3f3d56;}.k{fill:#e3a79f;}.l{fill:#7c5c5c;}.n{fill:#3a3768;}.o{fill:#e6e8ec;}.p{fill:#c7cce1;}.q{opacity:0.2;}.r{fill:#dcdfed;}.s{fill:#f2f3f3;}.t{fill:#d44f6a;}.u{fill:#fecb42;}.v{fill:#97d25e;}</style><linearGradient id="a" x1="0.5" y1="1" x2="0.5" gradientUnits="objectBoundingBox"><stop offset="0" stop-color="gray" stop-opacity="0.251"/><stop offset="0.54" stop-color="gray" stop-opacity="0.122"/><stop offset="1" stop-color="gray" stop-opacity="0.102"/></linearGradient></defs><g transform="translate(-26.353 0.06)"><path class="a" d="M299.466,68.653c-6.666-.231-13.016-2.384-19.08-4.732s-12.07-4.963-18.576-6.211c-4.186-.8-8.971-.916-12.345,1.328-3.244,2.159-4.293,5.888-4.857,9.345-.425,2.6-.673,5.342.489,7.778.806,1.69,2.239,3.113,3.23,4.732,3.447,5.638,1.01,12.589-2.725,18.092-1.753,2.576-3.786,5.039-5.137,7.782s-1.978,5.9-.8,8.7c1.173,2.776,3.967,4.866,7,6.335,6.149,2.981,13.4,3.834,20.459,4.318,15.64,1.069,31.363.6,47.045.142a137.866,137.866,0,0,0,17.34-1.243c3.171-.5,6.444-1.289,8.746-3.2a7.326,7.326,0,0,0,1.69-9.568c-3.284-5.1-12.365-6.364-14.66-11.835-1.264-3.011.034-6.367,1.87-9.16,3.94-5.991,10.542-11.248,10.889-18.1.241-4.707-2.935-9.414-7.845-11.64-5.144-2.333-12.276-2.04-16.072,1.822C312.22,67.328,305.353,68.859,299.466,68.653Z" transform="translate(-212.693 -55.598)"/><path class="b" d="M400.528,620.26s-5.552-9.838-13.919-12.673a17.113,17.113,0,0,1-8.671-6.486,28.818,28.818,0,0,1-2.559-4.6" transform="translate(-332.572 -529.821)"/><path class="c" d="M326.758,551.595c.952.924,5.391,1.882,5.391,1.882s-1.086-4.408-2.042-5.333a2.405,2.405,0,0,0-3.349,3.452Z" transform="translate(-289.21 -486.736)"/><path class="c" d="M338.5,612.8c1.3.258,5.552-1.351,5.552-1.351s-3.311-3.109-4.613-3.367a2.405,2.405,0,1,0-.937,4.719Z" transform="translate(-298.443 -539.963)"/><path class="c" d="M405.57,685.1c1.255-.435,4.1-3.967,4.1-3.967s-4.426-1.013-5.681-.578a2.405,2.405,0,0,0,1.569,4.545Z" transform="translate(-356.368 -603.632)"/><path class="c" d="M477.479,725.521c1.311-.216,4.719-3.215,4.719-3.215s-4.192-1.746-5.5-1.53a2.405,2.405,0,1,0,.783,4.746Z" transform="translate(-419.889 -639.08)"/><path class="c" d="M394.2,590.273c0,1.328-2.4,5.181-2.4,5.181s-2.407-3.851-2.408-5.179a2.405,2.405,0,0,1,4.811,0Z" transform="translate(-344.891 -522.233)"/><path class="c" d="M475.87,633.515c-.4,1.267-3.843,4.224-3.843,4.224s-1.144-4.395-.747-5.662a2.405,2.405,0,1,1,4.586,1.438Z" transform="translate(-416.824 -559.534)"/><path class="c" d="M546.973,695.745c-.176,1.316-3.073,4.813-3.073,4.813s-1.871-4.137-1.69-5.454a2.4,2.4,0,0,1,4.766.641Z" transform="translate(-479.256 -614.692)"/><path class="d" d="M326.758,551.595c.952.924,5.391,1.882,5.391,1.882s-1.086-4.408-2.042-5.333a2.405,2.405,0,0,0-3.349,3.452Z" transform="translate(-289.21 -486.736)"/><path class="d" d="M338.5,612.8c1.3.258,5.552-1.351,5.552-1.351s-3.311-3.109-4.613-3.367a2.405,2.405,0,1,0-.937,4.719Z" transform="translate(-298.443 -539.963)"/><path class="d" d="M405.57,685.1c1.255-.435,4.1-3.967,4.1-3.967s-4.426-1.013-5.681-.578a2.405,2.405,0,0,0,1.569,4.545Z" transform="translate(-356.368 -603.632)"/><path class="d" d="M477.479,725.521c1.311-.216,4.719-3.215,4.719-3.215s-4.192-1.746-5.5-1.53a2.405,2.405,0,1,0,.783,4.746Z" transform="translate(-419.889 -639.08)"/><path class="d" d="M394.2,590.273c0,1.328-2.4,5.181-2.4,5.181s-2.407-3.851-2.408-5.179a2.405,2.405,0,0,1,4.811,0Z" transform="translate(-344.891 -522.233)"/><path class="d" d="M475.87,633.515c-.4,1.267-3.843,4.224-3.843,4.224s-1.144-4.395-.747-5.662a2.405,2.405,0,1,1,4.586,1.438Z" transform="translate(-416.824 -559.534)"/><path class="d" d="M546.973,695.745c-.176,1.316-3.073,4.813-3.073,4.813s-1.871-4.137-1.69-5.454a2.4,2.4,0,0,1,4.766.641Z" transform="translate(-479.256 -614.692)"/><path class="b" d="M483.751,559.234s-1.086-11.245-7.588-17.227a17.093,17.093,0,0,1-5.3-9.443,28.74,28.74,0,0,1-.474-5.244" transform="translate(-416.115 -468.991)"/><path class="c" d="M435.341,471.8c.5,1.232,4.166,3.906,4.166,3.906s.791-4.472.295-5.7a2.407,2.407,0,0,0-4.466,1.8Z" transform="translate(-385.138 -417.262)"/><path class="c" d="M421.44,532.878c1.086.764,5.621,1.014,5.621,1.014s-1.766-4.183-2.852-4.949a2.405,2.405,0,1,0-2.769,3.934Z" transform="translate(-372.175 -470.032)"/><path class="c" d="M452.718,625.8c1.328.111,5.364-1.962,5.364-1.962s-3.637-2.723-4.961-2.83a2.405,2.405,0,1,0-.4,4.793Z" transform="translate(-398.591 -551.362)"/><path class="c" d="M502.876,692.171c1.287.333,5.618-1.028,5.618-1.028s-3.125-3.3-4.41-3.628a2.405,2.405,0,1,0-1.207,4.657Z" transform="translate(-443.097 -609.782)"/><path class="c" d="M481.445,534.849c-.538,1.216-4.3,3.763-4.3,3.763s-.64-4.5-.1-5.71a2.405,2.405,0,0,1,4.4,1.947Z" transform="translate(-421.779 -472.64)"/><path class="c" d="M530.795,608.084c-.876,1-5.225,2.305-5.225,2.305s.735-4.481,1.611-5.478a2.4,2.4,0,0,1,3.614,3.173Z" transform="translate(-464.635 -536.497)"/><path class="c" d="M576.118,693.148c-.7,1.132-4.76,3.156-4.76,3.156s-.034-4.541.661-5.673a2.407,2.407,0,1,1,4.1,2.518Z" transform="translate(-504.897 -611.581)"/><ellipse class="a" cx="32.444" cy="2.333" rx="32.444" ry="2.333" transform="translate(46.943 93.38)"/><path class="e" d="M697.521,74.2c.094-.257-.612-1.684-.612-1.754s-.73-.865-.73-1.31-.966-1.4-.966-1.4a2.441,2.441,0,0,1-1.436-1.708c-.141-1.17-1.551-1.192-1.555-1.192h0s.006-.107.008-.268a3.933,3.933,0,0,0-.174-1.369,1.4,1.4,0,0,0-.8-.678,3,3,0,0,0-.424-1.194,1.34,1.34,0,0,1-.33-1.262c.141-.443-.188-1.569-.871-1.73s-1.46-.421-1.46-.421-.076.014-.188.03l-.094-.03a4.135,4.135,0,0,1-.495.062.621.621,0,0,1-.4-.132,8.178,8.178,0,0,0-2.5-.748,5.9,5.9,0,0,1-1.366-.468s-.706-.537-1.011-.771a6.4,6.4,0,0,1-.886-1.223l-.01-.017h-.006a4.352,4.352,0,0,1-.185-.511c-.011-.036-.019-.072-.029-.109a5.628,5.628,0,0,0,.876-1.207c.024-.046.046-.093.069-.139a.508.508,0,0,0,.153-.024.658.658,0,0,0,.062-.024,1.026,1.026,0,0,0,.5-.6h0c.017-.051.031-.1.045-.154l.011-.052c.008-.035.016-.071.023-.107s.006-.04.01-.06.011-.07.016-.105,0-.04.008-.059c.006-.045.011-.088.017-.133h0c.019-.165.039-.331.074-.492a.018.018,0,0,1,0-.007h0a8.967,8.967,0,0,1,.793-1.757h0c.039-.084.075-.17.109-.256s.065-.188.093-.285c.008-.029.015-.058.023-.087q.027-.106.047-.214c.006-.03.012-.06.017-.092.017-.1.03-.194.037-.292a3.6,3.6,0,0,0-.241-1.643c-.176-.439-.439-.835-.618-1.273-.27-.666-.342-1.419-.672-2.052a2.447,2.447,0,0,0-2.933-1.2c-.512.191-.956.561-1.476.724a4.9,4.9,0,0,1-2.16-.045,2.679,2.679,0,0,0-2.1.362c-.667.542-.845,1.561-1.475,2.154-.263.25-.59.409-.868.64a1.423,1.423,0,0,0-.436.6.2.2,0,0,1-.016.051c0,.017-.011.04-.016.06s-.008.047-.012.07a.21.21,0,0,0,0,.048.725.725,0,0,0,0,.121h0a1.033,1.033,0,0,0,.019.121.252.252,0,0,0,.008.031.945.945,0,0,0,.029.1v.018c.013.036.028.071.042.107l.023.052c0,.014.013.029.019.045a2.781,2.781,0,0,1,.218.543.6.6,0,0,1-.022.362,1.087,1.087,0,0,1-.261.343,4.866,4.866,0,0,0-1.063,1.7c-.027.072-.052.145-.076.218v.006l.031.008a1.578,1.578,0,0,0,.206.045c.04,0,.08.01.121.012a1.834,1.834,0,0,0,.483-.036c.041-.008.081-.018.121-.029a2.881,2.881,0,0,0,.477-.175v.223a5.559,5.559,0,0,0,3.09,4.974c.007.052.013.1.021.152s.011.086.016.128l-.064-.062s-.424-.21-.824.4a2.659,2.659,0,0,1-1.154.888s-4.286.678-4.45,1.24l-2,.121s-.706.093-.776,1.569-.448,1.614-.448,1.614a5.577,5.577,0,0,0-.753,2.2,1.223,1.223,0,0,1-.636,1.122l-.094,1.328a.9.9,0,0,0-.99.8,3.125,3.125,0,0,1-.588,1.328s-1.3,1.077-1.366,1.988l-.8.491s-1.861-.421-2.285-1.17l-.13-.121a.09.09,0,0,1-.011-.018.039.039,0,0,0,0,.008,6.322,6.322,0,0,0-.779-.686.582.582,0,0,1,.039.377l-.139-.153-.371-.412s-2.768-3.179-4.533-3.4l-.134-.264a.3.3,0,0,0-.407-.133l-2.664,1.328a.3.3,0,0,0-.135.4l.3.585h-.006a.027.027,0,0,0-.014.017.028.028,0,0,0,0,.022l.1.206a.029.029,0,0,0,.039.013h0l.11.216h0a.033.033,0,0,0-.014.043l.2.391a.031.031,0,0,0,.019.017.032.032,0,0,0,.025,0h0l.081.158h0a.031.031,0,0,0-.013.041l.2.4a.029.029,0,0,0,.041.013h0l1.931,3.815a.3.3,0,0,0,.407.134l2.045-1.022.073.053.6.776c-.1.241-.188.483-.261.7a.2.2,0,0,1-.006.021c-.016.046-.03.092-.043.135l-.014.046c-.015.045-.028.088-.04.129l-.022.077a.214.214,0,0,1-.013.045c-.066.234-.109.415-.132.515l-.156-.048.152.065v.024c-.007.031-.01.049-.01.049.046.022.094.042.145.063.824.362,4.941,2.165,5.152,2.439a2.983,2.983,0,0,0,3.2.444,3.379,3.379,0,0,0,1.719-1.894A19.913,19.913,0,0,0,665.2,74.7c.047-.278,1.107-.6,1.107-.6s.094,3.138-.448,4.28A53.935,53.935,0,0,0,664.3,84.6a.743.743,0,0,1,.2-.012l-.059.293a.669.669,0,0,1,.249,0c-.075.576-.507,3.259-.507,3.259a6.645,6.645,0,0,1-.378,1.637,11.738,11.738,0,0,0-.258,2.619l-.377,1.591s.049.11.142.274v.006a4.058,4.058,0,0,0,1.086,1.4,2.875,2.875,0,0,1-.189.724,2.43,2.43,0,0,0-.188,1.122,14.486,14.486,0,0,0-.354,2.315,8.444,8.444,0,0,1-.268,1.777l-.424,4.069a38.3,38.3,0,0,0-.141,4.49,8.594,8.594,0,0,1-.094,2.268s.282,2.783.211,3.086a5.709,5.709,0,0,0-.211,2.339,12.617,12.617,0,0,1,.094,2.712s.141,2.62.305,3.462a5.972,5.972,0,0,1-.047,1.918,14.624,14.624,0,0,1-.241,1.8,1.946,1.946,0,0,0,.565,2.455c1.248,1.217.478,1.026.478,1.026s-.99-.491-.871.514c.111.957.267.707.281.681l-.241.769s.062.007.165.023l-.136.164a3.713,3.713,0,0,1-.475.492,1.013,1.013,0,0,0-.307.677,18.369,18.369,0,0,1-3.366,2.853,10.092,10.092,0,0,0-1.914,1.284c-.29.317-.241.575.362.774a9.19,9.19,0,0,0,5.109.094,5.959,5.959,0,0,0,2.5-1.614,3.579,3.579,0,0,1,2-.328c.988.187,2.967-1.1,2.967-1.1l-.036-.332-.1-.955a.737.737,0,0,1-.165-.584,3.063,3.063,0,0,0-.081-.845c-.017-.093-.035-.185-.053-.272l.181-.034s-.234-1.192.19-1.427.305-3.3.305-3.3a3.776,3.776,0,0,0-.824-.818c-.282-.117-.024-1.569.024-1.754s.424-3.812.424-3.812a4.9,4.9,0,0,1,.047-1.637,8,8,0,0,0-.235-2.385.434.434,0,0,1,.121-.515,10.48,10.48,0,0,0,.16-2.775s-.023-1.262-.023-1.591a5.778,5.778,0,0,1,.541-1.917,3.734,3.734,0,0,0,.1-1.638h0l.014-.093a1.038,1.038,0,0,1,.021-.133l.022-.121a17.737,17.737,0,0,1,.459-2.03c.307-.982.66-2.712.66-2.712l2.194-5.716.025-.068a8.966,8.966,0,0,1,1.011,3.6,20.537,20.537,0,0,1,.189,2.642,31.252,31.252,0,0,0,.212,3.2s.305,3.787.305,3.952a23.1,23.1,0,0,0,.613,3.533c.237.445-.241,1.8-.378,1.94a30.872,30.872,0,0,0,.047,3.579s-.354,2.712-.424,3.273a13.523,13.523,0,0,0-.121,3.556c.233.842.141.958.141.958s.845.865.354.935a1.3,1.3,0,0,0-.943,1.707,21.552,21.552,0,0,0,1.038,2.5s.146-.033.39-.082v.278l.029,1.394a8.2,8.2,0,0,1,.07,1.638c-.069.221-.163,1.27-.209,1.81-.017.2-.027.334-.027.334s0,1.238,2.613.865,3.085-1.4,3.085-1.4l.019-.129c.039-.241.121-.737.192-1.016a7.291,7.291,0,0,0-.752-2.059,4.312,4.312,0,0,0-.378-1.4,1.242,1.242,0,0,1-.19-.491c-.022-.094-.04-.192-.055-.288.062.008.121.019.174.031,0,0-.141-.818.4-1.077a.772.772,0,0,0,.33-1.028,7.913,7.913,0,0,1,.211-1.543.764.764,0,0,1,.188-.748,9.525,9.525,0,0,0,.589-2.62l.057-8.829a8.5,8.5,0,0,0-.023-2.2c-.188-.63-.378-1.847-.121-2.173s.024-1.847.024-1.847a18.7,18.7,0,0,1,.352-4c.352-.794.241-5.824.241-5.824l.093-3.3s.769-.724.586-4.524a6.3,6.3,0,0,1,1.887.033c.258.21,1.931,1.287,2.92.6a13.094,13.094,0,0,0,1.177-.912l-.415-7.011c.259.391.416.651.416.651,0-.982,2.776-4.163,2.776-4.163a45.167,45.167,0,0,1,3.155-3.742,11.884,11.884,0,0,0,1.672-2.5,10.346,10.346,0,0,1,.566-1.17C698.274,75.577,697.427,74.454,697.521,74.2Zm-6.076,2.456a4.611,4.611,0,0,0-2.214,2.034,1.455,1.455,0,0,1-.313.629c-.011-.141-.023-.285-.035-.431a48.105,48.105,0,0,1-.263-4.828,14.153,14.153,0,0,0,.093-2.315h0l.027-.036a11.974,11.974,0,0,0,1.949,3.2s.259.748.565.771S691.445,76.652,691.445,76.652Z" transform="translate(-572.24 -43.61)"/><path class="f" d="M695.55,280.415s.858-4.5,3.621-4.525l2.018,4.154-1.346.928A12.594,12.594,0,0,1,695.55,280.415Z" transform="translate(-614.099 -247.907)"/><path class="g" d="M701.189,280.069l-1.346.929a15.914,15.914,0,0,1-3.529-.3,4.072,4.072,0,0,1-.764-.261.266.266,0,0,1,.016-.072.156.156,0,0,1,0-.017,10.188,10.188,0,0,1,.523-1.654c.084-.2.181-.41.285-.618a4.223,4.223,0,0,1,1.75-1.919,2.39,2.39,0,0,1,.921-.241h.123l.043.092.683,1.4Z" transform="translate(-614.099 -247.934)"/><path class="f" d="M916.862,371.486a15.473,15.473,0,0,1,3.156-.07c.259.209,1.9,1.277,2.877.6s.325-3.017.325-3.11-.092-3.411-.092-3.411l-1.742-2.344-2.181-4.1-4.456-.441.121,6.518-.023,3.342Z" transform="translate(-806.843 -320.643)"/><path class="g" d="M916.862,371.486a15.473,15.473,0,0,1,3.156-.07c.259.209,1.9,1.277,2.877.6s.325-3.017.325-3.11-.092-3.411-.092-3.411l-1.742-2.344-2.181-4.1-4.456-.441.121,6.518-.023,3.342Z" transform="translate(-806.843 -320.643)"/><path class="h" d="M672.551,243.807s-.231,2.832-2,2.877c0,0-.5-.3-1.172-.8-1.55-1.16-4.01-3.389-3.33-5.463.975-2.97,5.709,2.507,5.709,2.507l.362.408Z" transform="translate(-588.062 -215.941)"/><path class="g" d="M696.558,271.474s-.23,2.832-2,2.877c0,0-.5-.3-1.172-.8l-.151-.193a2.3,2.3,0,0,0,.966.259,1.3,1.3,0,0,0,1.261-.794,10.147,10.147,0,0,0,.483-1.124,3.312,3.312,0,0,0,.179-.7Z" transform="translate(-612.068 -243.607)"/><path class="i" d="M696.778,274.879l-.4-.511-1.34-1.72-.681-.879a2.294,2.294,0,0,0,.966.261,1.307,1.307,0,0,0,1.262-.8,10.061,10.061,0,0,0,.483-1.124c.221-.626.216-.949.139-1.057a7.19,7.19,0,0,1,.766.681l.01.01.129.121.047.094.672,1.345.007.057C698.9,271.788,699.13,274.5,696.778,274.879Z" transform="translate(-613.053 -241.884)"/><path class="f" d="M735.466,785.313s-1.949,1.277-2.923,1.086a3.46,3.46,0,0,0-1.973.326,5.872,5.872,0,0,1-2.461,1.6,8.981,8.981,0,0,1-5.034-.094c-.594-.2-.641-.453-.356-.766a9.913,9.913,0,0,1,1.888-1.276,18.177,18.177,0,0,0,3.318-2.832,1.007,1.007,0,0,1,.3-.672,3.6,3.6,0,0,0,.468-.483c.249-.294.483-.6.483-.6l5.733.186s.1.414.174.836a2.991,2.991,0,0,1,.081.835.754.754,0,0,0,.163.579l.1.947Z" transform="translate(-637.839 -692.58)"/><path class="f" d="M886.565,790.078c-.069.278-.152.776-.189,1.01-.013.08-.019.128-.019.128s-.465,1.021-3.04,1.393-2.576-.859-2.576-.859.01-.133.027-.332c.045-.543.138-1.582.205-1.8a8.212,8.212,0,0,0-.069-1.625l-.028-1.383-.019-.966,4.27-.442a8.166,8.166,0,0,0,.138.951,1.207,1.207,0,0,0,.187.483,4.315,4.315,0,0,1,.372,1.393A7.45,7.45,0,0,1,886.565,790.078Z" transform="translate(-776.938 -695.746)"/><path class="g" d="M779.514,781.767s.1.414.174.836c-.619.113-3.326.583-4,.255a10.587,10.587,0,0,0-2.414-.581l.028-.094c.249-.294.483-.6.483-.6Z" transform="translate(-682.439 -692.563)"/><path class="g" d="M886.088,786.156a16.8,16.8,0,0,0-4.388.451l-.019-.966,4.27-.442A8.169,8.169,0,0,0,886.088,786.156Z" transform="translate(-777.764 -695.746)"/><path class="j" d="M790.127,399.208l-.093,3.272s.121,4.99-.232,5.779a18.374,18.374,0,0,0-.349,3.968s.233,1.509-.023,1.832-.07,1.533.121,2.159a8.241,8.241,0,0,1,.022,2.182l-.046,8.772a9.508,9.508,0,0,1-.581,2.6.76.76,0,0,0-.185.742,7.827,7.827,0,0,0-.209,1.532.768.768,0,0,1-.325,1.02c-.533.255-.4,1.068-.4,1.068-1.276-.3-4.9.512-4.9.512a21.168,21.168,0,0,1-1.022-2.484,1.282,1.282,0,0,1,.928-1.69c.486-.065-.348-.929-.348-.929s.093-.121-.139-.951a13.167,13.167,0,0,1,.121-3.528c.075-.556.418-3.249.418-3.249a29.9,29.9,0,0,1-.046-3.551,3.115,3.115,0,0,0,.372-1.931,23.351,23.351,0,0,1-.6-3.5c0-.158-.3-3.923-.3-3.923a31.656,31.656,0,0,1-.209-3.179,20.82,20.82,0,0,0-.186-2.621,8.94,8.94,0,0,0-1-3.575l-.025.066-2.157,5.673s-.348,1.716-.651,2.691a17.634,17.634,0,0,0-.453,2.014l-.02.121c-.009.052-.016.1-.021.13l-.014.094h0a3.721,3.721,0,0,1-.093,1.625,5.8,5.8,0,0,0-.544,1.907c0,.329.022,1.58.022,1.58a10.645,10.645,0,0,1-.162,2.762.438.438,0,0,0-.121.51,7.972,7.972,0,0,1,.233,2.367,4.881,4.881,0,0,0-.046,1.623s-.368,3.589-.409,3.778-.3,1.625-.024,1.74a3.742,3.742,0,0,1,.812.812s.121,3.04-.3,3.272-.187,1.416-.187,1.416-3.364.651-4.13.279a10.6,10.6,0,0,0-2.414-.581l.23-.763c-.013.027-.167.274-.276-.676-.121-1,.859-.511.859-.511s.765.186-.466-1.021a1.947,1.947,0,0,1-.556-2.437,15.577,15.577,0,0,0,.232-1.786,5.937,5.937,0,0,0,.046-1.9c-.163-.835-.3-3.435-.3-3.435a12.327,12.327,0,0,0-.093-2.691,5.637,5.637,0,0,1,.209-2.322c.07-.3-.209-3.063-.209-3.063a8.541,8.541,0,0,0,.093-2.25,38.059,38.059,0,0,1,.14-4.456l.418-4.038a8.568,8.568,0,0,0,.255-1.763,14.359,14.359,0,0,1,.348-2.293,2.525,2.525,0,0,1,.186-1.114,8.58,8.58,0,0,0,.326-2l2.228-5.107,1.086-4.5,14.737-.139s.054.39.142,1.1.216,1.761.362,3.057c.128,1.178.268,2.564.406,4.1C791.055,398.326,790.127,399.208,790.127,399.208Z" transform="translate(-679.389 -343.98)"/><path class="h" d="M869.724,137.31l-3.436,3.668s-4.408-1.765-3.944-2.368a3.405,3.405,0,0,0,.047-1.784c-.163-1.284-.511-2.765-.511-2.765s7.7-1.253,7.053.046a2.107,2.107,0,0,0-.048,1.541A5.793,5.793,0,0,0,869.724,137.31Z" transform="translate(-760.354 -122.718)"/><path class="g" d="M868.933,134.107c-.241.476-.35.521-.2,1.033-1.008,1.086-2.293,2.263-3.882,2.263a5.5,5.5,0,0,1-2.46-.577c-.163-1.284-.511-2.765-.511-2.765S869.584,132.808,868.933,134.107Z" transform="translate(-760.354 -122.718)"/><path class="h" d="M851.763,78.262a5.524,5.524,0,1,1-11.048,0c0-.027,0-.053,0-.08a5.523,5.523,0,1,1,11.046.08Z" transform="translate(-741.744 -69.24)"/><path class="g" d="M825.691,398.436c-.731.006-3.168.027-5.891.07h-.033l-.9.014h-.028c-3.229.052-6.41-.579-7.687-.459-2.716.255.974-2.507.974-2.507a22.693,22.693,0,0,0,6.186.625l.781-.04a33.352,33.352,0,0,0,6.242-.76C825.426,396.1,825.552,397.145,825.691,398.436Z" transform="translate(-714.872 -352.975)"/><path class="k" d="M825.691,397.277c-.731,0-3.168.027-5.891.069h-.033l-.9.016h-.028c-3.229.052-6.41-.579-7.687-.46-2.716.255.974-2.506.974-2.506a22.749,22.749,0,0,0,6.186.625l.781-.041a33.252,33.252,0,0,0,6.242-.76C825.426,394.937,825.552,395.981,825.691,397.277Z" transform="translate(-714.872 -351.955)"/><path class="g" d="M819.065,171.545l-4.27,2L811.5,199.023s1.949-.881,3.063-.325,4.548.047,4.548.047a10.568,10.568,0,0,1,2.879.139c.372.279,4.734-1.16,4.734-1.16s.789-1.765.186-2.042.186-3.017.186-3.017l-.372-18.381-.742-2.367-2-1.207-2.045,1.625-.966.139Z" transform="translate(-716.055 -155.422)"/><path class="i" d="M819.065,169.226l-4.27,2L811.5,196.706s1.949-.882,3.063-.325,4.548.046,4.548.046a10.617,10.617,0,0,1,2.879.139c.372.278,4.734-1.16,4.734-1.16s.789-1.763.186-2.042.186-3.017.186-3.017l-.372-18.383-.742-2.367-2-1.207-2.045,1.626-.966.138Z" transform="translate(-716.055 -153.382)"/><path class="g" d="M849.428,182.4s1.23,1.462,1.207,1.763-.069,1.021-.069,1.021l-.929,1.88s-.511,2.344-.511,2.831-.812,4.707-.812,4.707l-.974,6.5-1.23,8.517,1.253,2.158,1.486-1.253,1.972-15.179.418-2.993s.441-5.384.441-5.941a19.018,19.018,0,0,0-.255-2.019,2.376,2.376,0,0,1,1.555-1.717c1.253-.325-.093-.07-.093-.07l-.724-.581-.626.256S849.8,181.746,849.428,182.4Z" transform="translate(-746.487 -165.367)"/><path class="j" d="M848.313,181.274s1.23,1.462,1.207,1.763-.07,1.021-.07,1.021l-.928,1.88s-.5,2.341-.5,2.828-.812,4.707-.812,4.707l-.981,6.508L845,208.493l1.254,2.159,1.479-1.256,1.975-15.175.418-2.993s.441-5.384.441-5.942a18.982,18.982,0,0,0-.255-2.019,2.378,2.378,0,0,1,1.555-1.717c1.253-.326-.093-.069-.093-.069l-.724-.581-.617.253S848.685,180.621,848.313,181.274Z" transform="translate(-745.511 -164.382)"/><path class="g" d="M858.958,163.79s-.186.139-.232,1.067a18.567,18.567,0,0,1-.7,3.017s2.414-1.672,3.621-1.486Z" transform="translate(-756.969 -149.337)"/><path class="i" d="M858.958,161.48s-.186.139-.232,1.068a18.533,18.533,0,0,1-.7,3.017s2.414-1.67,3.621-1.485Z" transform="translate(-756.969 -147.306)"/><path class="g" d="M892.6,157.63l-3.807,3.342a38.52,38.52,0,0,1,3.621,2.368c.418.465.835-4.549.835-4.549Z" transform="translate(-784.016 -143.921)"/><path class="i" d="M893.8,155.33l-3.8,3.34a38.63,38.63,0,0,1,3.621,2.367c.419.465.836-4.549.836-4.549Z" transform="translate(-785.08 -141.898)"/><path class="g" d="M786.15,163.536s-.418-.209-.812.395a2.618,2.618,0,0,1-1.137.881s-4.224.673-4.386,1.23l-1.972.121s-.7.092-.766,1.555-.445,1.6-.445,1.6a5.587,5.587,0,0,0-.743,2.181,1.22,1.22,0,0,1-.626,1.114l2.9,7.542s.093,3.11-.442,4.247a53.868,53.868,0,0,0-1.532,6.174s.419-.093.395.185-.51,3.319-.51,3.319a6.683,6.683,0,0,1-.371,1.625,11.84,11.84,0,0,0-.256,2.6l-.372,1.578s.882,1.973,2.228,1.69,3.8-5.54,3.8-5.54l1.555-5.686,1.207-5.616.348-3.806.558-8.425.812-5.57S786.476,163.93,786.15,163.536Z" transform="translate(-684.022 -149.083)"/><path class="f" d="M785.07,161.226s-.418-.209-.812.395a2.626,2.626,0,0,1-1.137.882s-4.224.672-4.386,1.23l-1.973.121s-.7.093-.765,1.555-.442,1.6-.442,1.6a5.573,5.573,0,0,0-.742,2.181,1.218,1.218,0,0,1-.626,1.114l2.9,7.542s.093,3.11-.44,4.247a54.143,54.143,0,0,0-1.532,6.174s.418-.093.395.186-.51,3.318-.51,3.318a6.644,6.644,0,0,1-.372,1.625,11.748,11.748,0,0,0-.255,2.6L774,197.568s.882,1.973,2.228,1.69,3.783-5.546,3.783-5.546l1.556-5.686,1.207-5.617.349-3.806.556-8.425.812-5.57S785.395,161.62,785.07,161.226Z" transform="translate(-683.081 -147.052)"/><path class="g" d="M700.2,279.023l-1.346.929a15.913,15.913,0,0,1-3.529-.3l-.748-.333-.151-.065.155.048a3.064,3.064,0,0,0,1.857.066c1.9-.641,1.69-3.786,1.621-4.5-.007-.071-.012-.121-.016-.135a.039.039,0,0,1,0-.008l.011.018a.85.85,0,0,0,.088.121c.027.03.054.062.084.091h0l.672,1.345.007.057Z" transform="translate(-613.115 -246.887)"/><path class="f" d="M705.854,235.12l-.649.186-.093,1.328a.887.887,0,0,0-.975.789,3.189,3.189,0,0,1-.579,1.328s-1.277,1.068-1.347,1.972l-.788.483s-1.835-.427-2.251-1.165c0,0,.835,5.988-3.621,4.525,0,0,4.99,2.182,5.221,2.484a2.924,2.924,0,0,0,3.156.441,3.358,3.358,0,0,0,1.695-1.884,19.629,19.629,0,0,0,1.393-2.159c.047-.279,1.086-.6,1.086-.6l2-4.828Z" transform="translate(-614.099 -212.058)"/><path class="g" d="M912.49,158.393l.672-3.063a3.611,3.611,0,0,0,.6,1.23l1,.765a5.8,5.8,0,0,0,1.346.465,7.858,7.858,0,0,1,2.46.742c.232.26,1.161.07,1.161.07s.765.255,1.439.418,1,1.277.858,1.717a1.339,1.339,0,0,0,.326,1.253,3,3,0,0,1,.418,1.184,1.358,1.358,0,0,1,.788.672,4.657,4.657,0,0,1,.163,1.625l-3.458,4.874a14.148,14.148,0,0,1-.093,2.293c-.139.413.483,7.519.483,7.519l.724,12.207a12.909,12.909,0,0,1-1.16.905c-.209.093-.419-4.317-.419-4.479s-5.36-8.03-5.36-8.03a7.208,7.208,0,0,1-.724-1.416c0-.255-.673-2.6-.673-2.6l-1.021-4.525Z" transform="translate(-804.442 -141.898)"/><path class="f" d="M926.066,165.144c0,.159-.008.266-.008.266l-3.456,4.87h0a13.99,13.99,0,0,1-.092,2.293c-.081.241.1,2.74.261,4.79.121,1.481.227,2.729.227,2.729l.305,5.178.413,7.029a12.915,12.915,0,0,1-1.16.905c-.209.093-.418-4.317-.418-4.48s-5.361-8.029-5.361-8.029a7.207,7.207,0,0,1-.724-1.416c0-.255-.672-2.6-.672-2.6l-1.021-4.526.464-13.83.395-3.063a6.691,6.691,0,0,0,.882,1.229c.3.231,1,.766,1,.766a5.793,5.793,0,0,0,1.347.465,7.848,7.848,0,0,1,2.46.742c.232.259,1.161.07,1.161.07s.765.255,1.438.418,1,1.277.859,1.716a1.339,1.339,0,0,0,.325,1.254,2.98,2.98,0,0,1,.418,1.183,1.362,1.362,0,0,1,.789.675A3.8,3.8,0,0,1,926.066,165.144Z" transform="translate(-806.5 -141.837)"/><path class="g" d="M776.31,749.48c.121,0,4.99.186,4.9.975S776.31,749.48,776.31,749.48Z" transform="translate(-685.112 -664.337)"/><path class="g" d="M785.35,760.44s3.272.533,2.414,1.021S785.35,760.44,785.35,760.44Z" transform="translate(-693.061 -673.974)"/><path class="g" d="M886.1,745.25s5.431.465,4.619,1.067a7.254,7.254,0,0,1-2.831.724A25,25,0,0,1,886.1,745.25Z" transform="translate(-781.651 -660.618)"/><path class="g" d="M880.72,765.06s3.017.51,3.109,1.086S880.72,765.06,880.72,765.06Z" transform="translate(-776.92 -678.037)"/><path class="g" d="M894.56,649.3s2.762.649,2.924,1.086Z" transform="translate(-789.09 -576.248)"/><path class="g" d="M801.541,665.84s-1.439.418-.046,1.253S801.541,665.84,801.541,665.84Z" transform="translate(-706.723 -590.792)"/><path class="g" d="M859.18,476.979c.163,0,2.693-.835,3.574-.463a5.868,5.868,0,0,0,1.973.371Z" transform="translate(-757.98 -424.234)"/><path class="g" d="M837.945,493.75l-.025.229-2.157,5.673s-.348,1.716-.651,2.691a17.648,17.648,0,0,0-.453,2.014l1.915-11.878Z" transform="translate(-736.419 -438.356)"/><path class="j" d="M879.2,402.886l-.9.016h-.028l-.527-2.339c.259-.013.519-.027.781-.042Z" transform="translate(-774.3 -357.495)"/><path class="h" d="M912.412,380.418l-.578.476-1.931,1.588s-5.222,2.786-6.661.14c-1.269-2.331,4.653-3.995,6.078-4.358.194-.049.3-.074.3-.074Z" transform="translate(-796.568 -337.86)"/><path class="g" d="M795.73,207.63s1.021.463,1.253,1.114S795.73,207.63,795.73,207.63Z" transform="translate(-702.188 -187.886)"/><path class="g" d="M762.1,265.31s-1.486,1.81-.882,2.507S762.1,265.31,762.1,265.31Z" transform="translate(-671.716 -238.604)"/><path class="g" d="M979.069,216.09s-1.393.139-1.439,1.346Z" transform="translate(-862.134 -195.325)"/><path class="g" d="M882.64,341.106c.139-.139,3.342-4.874,4.084-4.456Z" transform="translate(-778.609 -301.311)"/><path class="g" d="M851.776,78.227a5.505,5.505,0,0,1-.653,2.607l-.041-.007c-.35-.074-.532-.483-.8-.736a1.086,1.086,0,0,0-1.253-.176,1.275,1.275,0,0,0-.616,1.191c-.176-.743-.121-1.534-.293-2.279s-.693-1.5-1.4-1.511c-.307,0-.665.113-.886-.121-.134-.139-.162-.362-.262-.525-.508-.823-2.052-.407-2.687.014a16.8,16.8,0,0,1-2.152,1.458,5.523,5.523,0,0,1,11.046.08Z" transform="translate(-741.757 -69.205)"/><path class="l" d="M835.351,54.875c.1.168.128.387.262.525.221.229.579.112.886.121.711.012,1.231.766,1.4,1.511s.121,1.534.293,2.278a1.272,1.272,0,0,1,.617-1.19,1.086,1.086,0,0,1,1.252.175c.268.255.45.663.8.736s.688-.262.813-.631a9.674,9.674,0,0,0,.2-1.156,14.666,14.666,0,0,1,.892-2,3.635,3.635,0,0,0-.024-2.593c-.174-.436-.433-.828-.6-1.264-.268-.661-.338-1.407-.663-2.037a2.4,2.4,0,0,0-2.891-1.186c-.5.189-.943.556-1.454.724a4.817,4.817,0,0,1-2.13-.045,2.613,2.613,0,0,0-2.065.362c-.657.537-.836,1.547-1.448,2.138-.26.247-.582.406-.856.635a1.185,1.185,0,0,0-.483.943c.041.483.512.917.338,1.363a1.1,1.1,0,0,1-.257.339,4.833,4.833,0,0,0-1.124,1.912c1.242.387,2.586-.981,3.558-1.628C833.3,54.47,834.843,54.058,835.351,54.875Z" transform="translate(-731.539 -47.546)"/><path class="g" d="M957.349,380.418l-.578.476a17.145,17.145,0,0,0-2.6-2.543l.09-.087c.194-.049.3-.074.3-.074Z" transform="translate(-841.505 -337.86)"/><path class="i" d="M958.927,374.16s-.208.517-.422.966-.448.852-.46.523c-.023-.651-2.714-2.833-2.714-2.833l.362-.355.424-.41Z" transform="translate(-842.525 -332.461)"/><path class="g" d="M959.178,341.189l.305,5.178c-.724-1.121-2.7-4-3.973-3.9l3.087-3.55a4.172,4.172,0,0,0,.354-.455C959.069,339.941,959.178,341.189,959.178,341.189Z" transform="translate(-842.683 -302.925)"/><path class="g" d="M961.582,374.16s-.208.517-.422.966c-.809-1.109-1.921-2.42-2.81-2.665l.424-.41Z" transform="translate(-845.181 -332.461)"/><path class="f" d="M962.426,234l.835.649s1.392.024,1.532,1.184a2.406,2.406,0,0,0,1.416,1.69s.951.951.951,1.392.724,1.231.724,1.3.7,1.486.6,1.74.742,1.37.483,1.787a10.247,10.247,0,0,0-.558,1.16,11.606,11.606,0,0,1-1.647,2.484,43.748,43.748,0,0,0-3.109,3.713s-2.739,3.156-2.739,4.131c0,0-2.67-4.456-4.247-4.345l3.086-3.551s.535-.579.558-.928a4.547,4.547,0,0,1,2.181-2.019s.121-.951-.186-.974-.556-.766-.556-.766-2.042-2.414-2.065-3.946S962.426,234,962.426,234Z" transform="translate(-843.703 -211.073)"/><path class="g" d="M1002.962,252.24s-1.95,1.439-1.532,1.9S1002.962,252.24,1002.962,252.24Z" transform="translate(-883.01 -227.112)"/><path class="g" d="M1015.32,297.7s3.621-1.16,3.991,0Z" transform="translate(-895.275 -266.635)"/><path class="g" d="M735.466,809.933s-1.949,1.277-2.923,1.086a3.459,3.459,0,0,0-1.973.326,5.872,5.872,0,0,1-2.461,1.6,8.981,8.981,0,0,1-5.034-.094c-.594-.2-.641-.453-.356-.766,1.363.272,4.408.811,5.229.419a21.666,21.666,0,0,0,2.6-1.625s2-.279,2.275-.279a24.87,24.87,0,0,0,2.609-1Z" transform="translate(-637.839 -717.201)"/><path class="g" d="M886.355,834c-.013.08-.019.128-.019.128s-.465,1.021-3.04,1.393-2.576-.859-2.576-.859.01-.133.027-.332C881.561,834.637,883.34,834.984,886.355,834Z" transform="translate(-776.92 -738.656)"/><path class="g" d="M799.489,249.93s0,5.291-.453,5.814S799.489,249.93,799.489,249.93Z" transform="translate(-704.984 -225.08)"/><path class="g" d="M977.05,264.06l.672,1.891S977.99,264.1,977.05,264.06Z" transform="translate(-861.624 -237.505)"/><g class="m" transform="translate(97.566 4.943)"><path d="M838.1,86.328c.17-.436-.275-.862-.333-1.328a.872.872,0,0,0-.075.42,7.809,7.809,0,0,0,.362,1.005.538.538,0,0,0,.046-.1Z" transform="translate(-836.651 -85)"/><path d="M838.224,101.946c-.167-.733-.121-1.507-.287-2.239s-.692-1.5-1.4-1.511c-.307,0-.665.112-.887-.121-.133-.138-.161-.362-.261-.525-.508-.823-2.052-.406-2.688.016-.95.631-2.253,1.95-3.47,1.651-.059.141-.113.284-.158.43,1.242.387,2.587-.981,3.558-1.628.634-.421,2.18-.845,2.688-.016.1.168.128.387.262.525.221.229.579.112.886.121.711.012,1.231.766,1.4,1.511s.121,1.534.293,2.278A1.254,1.254,0,0,1,838.224,101.946Z" transform="translate(-829.07 -95.62)"/><path d="M908.448,127.246c-.121.369-.457.707-.815.631s-.532-.483-.8-.736a1.086,1.086,0,0,0-1.253-.175,1.265,1.265,0,0,0-.616,1.125,1.207,1.207,0,0,1,.547-.672,1.086,1.086,0,0,1,1.252.175c.268.255.45.663.8.736s.688-.262.813-.631a3.162,3.162,0,0,0,.128-.666A1.872,1.872,0,0,1,908.448,127.246Z" transform="translate(-895.805 -121.791)"/><path d="M935.878,100.263a14.674,14.674,0,0,0-.891,2.006c-.031.146-.049.3-.068.445a14.741,14.741,0,0,1,.89-2,3.585,3.585,0,0,0,.215-.966,3.529,3.529,0,0,1-.146.513Z" transform="translate(-922.144 -97.97)"/></g><rect class="n" width="0.106" height="0.871" rx="0.053" transform="matrix(0.893, -0.45, 0.45, 0.893, 79.651, 24.567)"/><rect class="n" width="0.059" height="0.287" rx="0.03" transform="translate(76.204 25.526) rotate(-26.74)"/><rect class="n" width="0.066" height="0.5" rx="0.033" transform="matrix(0.893, -0.45, 0.45, 0.893, 76.44, 26.008)"/><rect class="n" width="0.064" height="0.503" rx="0.032" transform="matrix(0.893, -0.45, 0.45, 0.893, 76.744, 26.61)"/><rect class="n" width="3.536" height="7.189" rx="1.768" transform="matrix(0.893, -0.45, 0.45, 0.893, 75.809, 24.676)"/><path class="c" d="M654,238.322a.121.121,0,0,0-.056.17l.012.023a.121.121,0,0,1-.057.17l-1.339.675a.121.121,0,0,1-.17-.056l-.012-.024a.121.121,0,0,0-.17-.056l-.261.13a.241.241,0,0,0-.107.326l2.847,5.652a.241.241,0,0,0,.326.107l2.335-1.177a.241.241,0,0,0,.107-.325l-2.844-5.653a.241.241,0,0,0-.325-.106Z" transform="translate(-575.64 -214.725)"/><rect class="o" width="0.494" height="0.1" rx="0.05" transform="matrix(0.893, -0.45, 0.45, 0.893, 77.181, 24.226)"/><circle class="o" cx="0.057" cy="0.057" r="0.057" transform="translate(77.704 23.926)"/><path class="p" d="M623.576,260.457V273.8a1.336,1.336,0,0,1-1.339,1.339H620.8V259.12h1.438a1.336,1.336,0,0,1,1.339,1.337Z" transform="translate(-548.371 -233.161)"/><path class="q" d="M631.372,259.145v15.966a1.351,1.351,0,0,1-.262.025h-.22V259.12h.22A1.346,1.346,0,0,1,631.372,259.145Z" transform="translate(-557.244 -233.161)"/><rect class="r" width="5.183" height="41.555" transform="translate(63.676 46.734)"/><rect class="p" width="8.242" height="1.157" transform="translate(61.848 92.726)"/><rect class="g" width="8.242" height="0.649" transform="translate(61.848 92.726)"/><rect class="g" width="5.183" height="0.821" transform="translate(63.676 87.467)"/><path class="r" d="M401.742,726.54h11.867a4.912,4.912,0,0,1,4.912,4.912v.756H396.83v-.756A4.912,4.912,0,0,1,401.742,726.54Z" transform="translate(-341.707 -638.902)"/><rect class="g" width="5.183" height="4.985" transform="translate(63.676 52.455)"/><rect class="g" width="5.183" height="4.985" transform="translate(63.676 52.116)"/><rect class="r" width="6.203" height="4.985" transform="translate(63.195 52.285)"/><path class="p" d="M535.951,391.188v2.069a1.941,1.941,0,0,1-1.941,1.941h-6.88a1.941,1.941,0,0,1-1.941-1.941v-2.069a1.94,1.94,0,0,1,1.941-1.938h6.88A1.94,1.94,0,0,1,535.951,391.188Z" transform="translate(-464.301 -347.585)"/><path class="g" d="M535.925,391.188v.211a6.77,6.77,0,0,1-10.765,0v-.211a1.94,1.94,0,0,1,1.941-1.938h6.88a1.94,1.94,0,0,1,1.944,1.938Z" transform="translate(-464.275 -347.585)"/><path class="p" d="M433.627,202h12.445a.547.547,0,0,1,.547.547v15.57a5.867,5.867,0,0,1-5.867,5.867h-1.8a5.867,5.867,0,0,1-5.867-5.867v-15.57A.547.547,0,0,1,433.627,202Z" transform="translate(-373.581 -177.672)"/><path class="p" d="M441.493,135.361h7.845a2.083,2.083,0,0,1,2.083,2.083v5.968a.751.751,0,0,1-.751.751h-10.51a.751.751,0,0,1-.751-.751v-5.97a2.083,2.083,0,0,1,2.083-2.083Z" transform="translate(-379.147 -119.075)"/><rect class="q" width="9.403" height="0.623" transform="translate(61.68 22.461)"/><rect class="g" width="10.762" height="7.81" transform="translate(60.887 26.327)"/><rect class="c" width="10.762" height="7.81" transform="translate(60.887 26.157)"/><g class="m" transform="translate(60.947 35.305)"><rect width="2.421" height="0.864" rx="0.432"/><rect width="2.421" height="0.864" rx="0.432" transform="translate(2.74)"/><rect width="2.421" height="0.864" rx="0.432" transform="translate(5.48)"/><rect width="2.421" height="0.864" rx="0.432" transform="translate(8.221)"/><rect width="2.421" height="0.864" rx="0.432" transform="translate(0 1.692)"/><rect width="2.421" height="0.864" rx="0.432" transform="translate(2.74 1.692)"/><rect width="2.421" height="0.864" rx="0.432" transform="translate(5.48 1.692)"/><rect width="2.421" height="0.864" rx="0.432" transform="translate(0 3.342)"/><rect width="2.421" height="0.864" rx="0.432" transform="translate(2.74 3.342)"/><rect width="2.421" height="0.864" rx="0.432" transform="translate(5.48 3.342)"/><rect width="2.421" height="0.864" rx="0.432" transform="translate(0 5.162)"/><rect width="2.421" height="0.864" rx="0.432" transform="translate(2.74 5.162)"/><rect width="2.421" height="0.864" rx="0.432" transform="translate(5.48 5.162)"/><rect width="2.421" height="0.864" rx="0.432" transform="translate(8.221 1.692)"/><rect width="2.146" height="3.08" rx="1.073" transform="translate(8.369 3.249)"/></g><rect class="s" width="2.421" height="0.864" rx="0.432" transform="translate(60.947 35.135)"/><rect class="s" width="2.421" height="0.864" rx="0.432" transform="translate(63.687 35.135)"/><rect class="s" width="2.421" height="0.864" rx="0.432" transform="translate(66.426 35.135)"/><rect class="t" width="2.421" height="0.864" rx="0.432" transform="translate(69.167 35.135)"/><rect class="s" width="2.421" height="0.864" rx="0.432" transform="translate(60.947 36.827)"/><rect class="s" width="2.421" height="0.864" rx="0.432" transform="translate(63.687 36.827)"/><rect class="s" width="2.421" height="0.864" rx="0.432" transform="translate(66.426 36.827)"/><rect class="s" width="2.421" height="0.864" rx="0.432" transform="translate(60.947 38.477)"/><rect class="s" width="2.421" height="0.864" rx="0.432" transform="translate(63.687 38.477)"/><rect class="s" width="2.421" height="0.864" rx="0.432" transform="translate(66.426 38.477)"/><rect class="s" width="2.421" height="0.864" rx="0.432" transform="translate(60.947 40.297)"/><rect class="s" width="2.421" height="0.864" rx="0.432" transform="translate(63.687 40.297)"/><rect class="s" width="2.421" height="0.864" rx="0.432" transform="translate(66.426 40.297)"/><rect class="u" width="2.421" height="0.864" rx="0.432" transform="translate(69.167 36.827)"/><rect class="v" width="2.146" height="3.08" rx="1.073" transform="translate(69.316 38.385)"/><path class="w" d="M442.22,351" transform="translate(-391.345 -313.952)"/><rect class="p" width="1.16" height="0.139" transform="translate(66.253 33.018)"/><rect class="p" width="1.16" height="0.139" transform="translate(67.877 33.018)"/><rect class="p" width="1.16" height="0.139" transform="translate(69.502 33.018)"/></g></svg>