<?xml version="1.0" encoding="UTF-8"?>
<!DOCTYPE svg PUBLIC "-//W3C//DTD SVG 1.1//EN" "http://www.w3.org/Graphics/SVG/1.1/DTD/svg11.dtd">
<!-- Creator: CorelDRAW 2019 (64-Bit) -->
<svg xmlns="http://www.w3.org/2000/svg" xml:space="preserve" width="34.9022mm" height="34.9062mm" version="1.1" style="shape-rendering:geometricPrecision; text-rendering:geometricPrecision; image-rendering:optimizeQuality; fill-rule:evenodd; clip-rule:evenodd"
viewBox="0 0 3490.24 3490.64"
 xmlns:xlink="http://www.w3.org/1999/xlink">
 <defs>
  <style type="text/css">
   <![CDATA[
    .fil0 {fill:#FEFEFE}
   ]]>
  </style>
 </defs>
 <g id="Layer_x0020_1">
  <metadata id="CorelCorpID_0Corel-Layer"/>
  <path class="fil0" d="M2979.1 2256.6c-186.34,-187.32 -413.64,-329.72 -663.24,-416.1 274.21,-187.83 438.13,-499.21 438.13,-831.63 0,-557.08 -451.78,-1008.87 -1008.87,-1008.87 -557.02,0 -1008.81,451.78 -1008.81,1008.87 0,332.42 163.92,643.8 437.96,831.8 -702.25,243.76 -1173.88,906.32 -1174.28,1649.97l273.06 0c0.06,-812.88 659.23,-1472.06 1472,-1472.06 812.82,0 1472,659.17 1472,1472l273.12 0.06c0.06,-1.49 0.06,-3.38 0.06,-4.88 0,-461.41 -184.17,-903.79 -511.2,-1229.16l0.06 0zm-1234.04 -511.08c-406.52,0 -736.25,-329.73 -736.25,-736.31 0,-406.58 329.73,-736.31 736.25,-736.31 406.58,0 736.31,329.73 736.31,736.31 -0.34,406.41 -329.9,735.97 -736.31,736.31z"/>
 </g>
</svg>
