<?xml version="1.0" encoding="UTF-8"?>
<!DOCTYPE svg PUBLIC "-//W3C//DTD SVG 1.1//EN" "http://www.w3.org/Graphics/SVG/1.1/DTD/svg11.dtd">
<!-- Creator: CorelDRAW 2019 (64-Bit) -->
<svg xmlns="http://www.w3.org/2000/svg" xml:space="preserve" width="6.0854mm" height="6.0861mm" version="1.1" style="shape-rendering:geometricPrecision; text-rendering:geometricPrecision; image-rendering:optimizeQuality; fill-rule:evenodd; clip-rule:evenodd"
viewBox="0 0 608.56 608.63"
 xmlns:xlink="http://www.w3.org/1999/xlink">
 <defs>
  <style type="text/css">
   <![CDATA[
    .fil0 {fill:#707070}
   ]]>
  </style>
 </defs>
 <g id="Layer_x0020_1">
  <metadata id="CorelCorpID_0Corel-Layer"/>
  <path class="fil0" d="M519.44 393.46c-32.49,-32.66 -72.12,-57.49 -115.64,-72.55 47.81,-32.75 76.39,-87.04 76.39,-145 0,-97.13 -78.77,-175.91 -175.91,-175.91 -97.12,0 -175.9,78.77 -175.9,175.91 0,57.96 28.58,112.25 76.36,145.03 -122.44,42.5 -204.68,158.03 -204.75,287.69l47.61 0c0.01,-141.73 114.94,-256.67 256.66,-256.67 141.72,0 256.66,114.93 256.66,256.66l47.62 0.01c0.01,-0.26 0.01,-0.59 0.01,-0.85 0,-80.45 -32.11,-157.59 -89.13,-214.32l0.01 0zm-215.17 -89.11c-70.88,0 -128.37,-57.49 -128.37,-128.38 0,-70.89 57.49,-128.38 128.37,-128.38 70.89,0 128.38,57.49 128.38,128.38 -0.06,70.86 -57.52,128.32 -128.38,128.38z"/>
 </g>
</svg>
